<svg xmlns="http://www.w3.org/2000/svg" viewBox="0 0 841.9 595.3">
  <g fill="#61DAFB">
    <path d="M666.3 296.5c0-58.2-47.2-105.4-105.4-105.4-15.6 0-30.4 3.3-43.6 9.1-12.1-26.4-27.5-50.2-45-70.9 36.8-26.2 81.5-42 130.1-42 104.9 0 190 85.1 190 190s-85.1 190-190 190c-48.6 0-93.3-15.8-130.1-42 17.5-20.7 32.9-44.5 45-70.9 13.2 5.9 28 9.1 43.6 9.1 58.2 0 105.4-47.2 105.4-105.4zM527.3 496c-23.7-2.4-46.2-7.4-67.3-14.7-18.7 36.7-39.8 68-62.8 93.8-4.5.6-9 .9-13.7.9-104.9 0-190-85.1-190-190s85.1-190 190-190c4.6 0 9.1.3 13.7.9 23 25.8 44.1 57.1 62.8 93.8 21.1-7.3 43.6-12.3 67.3-14.7 0 3.4-.3 6.8-.3 10.3 0 37.8 7.5 73.6 21.3 106.3-13.8 32.7-21.3 68.5-21.3 106.3 0 3.5.3 6.9.3 10.3zM349.2 490.7c12.1-26.4 27.5-50.2 45-70.9-17.5-20.7-32.9-44.5-45-70.9-36.8 26.2-81.5 42-130.1 42-104.9 0-190-85.1-190-190s85.1-190 190-190c48.6 0 93.3 15.8 130.1 42-17.5 20.7-32.9 44.5-45 70.9 13.2-5.9 28-9.1 43.6-9.1 58.2 0 105.4 47.2 105.4 105.4 0 15.6-3.3 30.4-9.1 43.6 26.4 12.1 50.2 27.5 70.9 45-26.2 36.8-42 81.5-42 130.1s15.8 93.3 42 130.1c-20.7 17.5-44.5 32.9-70.9 45 5.9-13.2 9.1-28 9.1-43.6 0-58.2-47.2-105.4-105.4-105.4-15.6 0-30.4 3.3-43.6 9.1-12.1-26.4-27.5-50.2-45-70.9z"></path>
  </g>
</svg>
